<?xml version="1.0" encoding="utf-8"?>
<!-- Generator: Adobe Illustrator 17.1.0, SVG Export Plug-In . SVG Version: 6.00 Build 0)  -->
<!DOCTYPE svg PUBLIC "-//W3C//DTD SVG 1.1//EN" "http://www.w3.org/Graphics/SVG/1.1/DTD/svg11.dtd">
<svg version="1.1" id="Layer_1" xmlns="http://www.w3.org/2000/svg" xmlns:xlink="http://www.w3.org/1999/xlink" x="0px" y="0px"
	 viewBox="0 0 729 612" style="enable-background:new 0 0 729 612;" xml:space="preserve">
<style type="text/css">
	.st0{fill:#8E8E8E;}
</style>
<path class="st0" d="M364.5,1.8C196.8,1.8,60.3,138.3,60.3,306s136.5,304.2,304.2,304.2S668.7,473.7,668.7,306S532.2,1.8,364.5,1.8z
	 M565.5,142c36.1,44.1,58.1,100.4,58.8,161.9c-8.6-1.8-94.2-19.3-180.8-8.3l-5.5-13.5c-5.5-12.5-11.3-25.1-17.1-37.6
	C516.6,205.3,560,149.6,565.5,142z M364.5,46.5c66.1,0,126.4,24.8,172.3,65.5c-4.6,6.7-43.8,59.1-136.2,93.9
	c-42.5-78.3-89.7-142.6-97-152.1C323.2,49.3,343.7,46.5,364.5,46.5z M254,71.3c6.7,9.5,53.2,73.7,96.4,150.2
	c-121.5,32.1-228.6,31.8-240.2,31.5C127,172.6,181.5,105.6,254,71.3z M104.7,306.3v-8c11.3,0.3,137.4,1.8,266.8-37
	c7.3,14.7,14.4,29.4,21.1,44.1l-10.1,3.1c-134,43.1-205.3,161.3-211.1,171.4C130.1,433.9,104.7,373,104.7,306.3z M364.5,566.1
	c-60,0-115.4-20.5-159.4-54.8c4.6-9.5,57.2-111.1,203.8-162.2l1.8-0.6c36.4,94.9,51.4,174.1,55.4,197.1
	C434.9,558.8,400.6,566.1,364.5,566.1z M509.5,521.7c-2.8-15.9-16.5-91.8-50.5-185.1c81.4-13.2,153,8.3,161.9,11
	C609.3,419.8,568,482.3,509.5,521.7z"/>
</svg>
