<?xml version="1.0" encoding="utf-8"?>
<!-- Generator: Adobe Illustrator 17.1.0, SVG Export Plug-In . SVG Version: 6.00 Build 0)  -->
<!DOCTYPE svg PUBLIC "-//W3C//DTD SVG 1.1//EN" "http://www.w3.org/Graphics/SVG/1.1/DTD/svg11.dtd">
<svg version="1.1" id="Layer_1" xmlns="http://www.w3.org/2000/svg" xmlns:xlink="http://www.w3.org/1999/xlink" x="0px" y="0px"
	 viewBox="0 0 729 612" style="enable-background:new 0 0 729 612;" xml:space="preserve">
<style type="text/css">
	.st0{fill:#8E8E8E;}
</style>
<path class="st0" d="M584.8,4.4H142.4C97,4.4,62,39.3,62,84.8v442.4c0,45.5,35,80.4,80.4,80.4h442.4c45.5,0,80.4-35,80.4-80.4V84.8
	C667,39.3,630.3,4.4,584.8,4.4z M142.4,53.3h442.4c17.5,0,29.7,12.2,29.7,29.7v120.7H486.9c-31.5-31.5-75.2-50.7-124.1-50.7
	s-92.7,19.2-124.1,50.7H112.7V84.8C112.7,65.6,124.9,53.3,142.4,53.3z M490.4,329.6c0,69.9-56,125.9-125.9,125.9
	s-125.9-56-125.9-125.9s56-125.9,125.9-125.9S490.4,259.7,490.4,329.6z M490.4,172.2V86.6c0-5.2,1.7-7,7-7h85.7c5.2,0,7,1.7,7,7
	v85.7c0,5.2-1.7,7-7,7h-85.7C492.1,179.2,490.4,177.5,490.4,172.2z M439.7,329.6c0,42-33.2,75.2-75.2,75.2s-75.2-33.2-75.2-75.2
	c0-7,1.7-15.7,1.7-22.7c7,12.2,21,22.7,35,22.7c21,0,38.5-17.5,38.5-38.5c0-15.7-10.5-29.7-22.7-35c7,0,15.7-1.7,22.7-1.7
	C406.5,254.4,439.7,287.6,439.7,329.6z"/>
</svg>
