<?xml version="1.0" encoding="utf-8"?>
<!-- Generator: Adobe Illustrator 20.1.0, SVG Export Plug-In . SVG Version: 6.00 Build 0)  -->
<svg version="1.1" id="Layer_1" xmlns="http://www.w3.org/2000/svg" xmlns:xlink="http://www.w3.org/1999/xlink" x="0px" y="0px"
	 viewBox="0 0 64 64" style="enable-background:new 0 0 64 64;" xml:space="preserve">
<style type="text/css">
	.st0{fill:#DEDEDE;}
	.st1{fill:#FFFFFF;}
	.st2{fill:#231F20;}
	.st3{fill:#0000FF;}
	.st4{clip-path:url(#SVGID_2_);}
	.st5{fill:none;}
	.st6{clip-path:url(#SVGID_4_);}
	.st7{fill:#5D5D5D;}
	.st8{fill:#FF0080;}
	.st9{fill:#FFFF00;}
	.st10{fill:#00FF80;}
	.st11{fill-rule:evenodd;clip-rule:evenodd;fill:#00FF80;}
	.st12{clip-path:url(#SVGID_6_);}
	.st13{clip-path:url(#SVGID_8_);}
	.st14{clip-path:url(#SVGID_10_);}
	.st15{display:none;fill:none;stroke:#FF0080;stroke-linecap:round;stroke-miterlimit:10;}
	.st16{clip-path:url(#SVGID_12_);}
	.st17{clip-path:url(#SVGID_14_);}
	.st18{clip-path:url(#SVGID_16_);}
	.st19{clip-path:url(#SVGID_18_);}
	.st20{clip-path:url(#SVGID_20_);}
	.st21{clip-path:url(#SVGID_22_);}
	.st22{clip-path:url(#SVGID_24_);}
	.st23{clip-path:url(#SVGID_26_);}
	.st24{clip-path:url(#SVGID_28_);}
	.st25{clip-path:url(#SVGID_30_);}
	.st26{clip-path:url(#SVGID_32_);}
	.st27{clip-path:url(#SVGID_34_);}
	.st28{clip-path:url(#SVGID_36_);}
	.st29{clip-path:url(#SVGID_38_);}
</style>
<g>
	<g>
		<g>
			<path class="st0" d="M11.6,61.8c-1.3,0-2.3-1-2.3-2.3v-8.6c0-1.3,1-2.3,2.3-2.3h40.7c1.3,0,2.3,1,2.3,2.3v8.6
				c0,1.3-1,2.3-2.3,2.3H11.6z"/>
		</g>
		<g>
			<path d="M52.4,49c1,0,1.8,0.8,1.8,1.8v8.6c0,1-0.8,1.8-1.8,1.8H11.6c-1,0-1.8-0.8-1.8-1.8v-8.6c0-1,0.8-1.8,1.8-1.8H52.4
				 M52.4,48H11.6c-1.5,0-2.8,1.3-2.8,2.8v8.6c0,1.5,1.3,2.8,2.8,2.8h40.7c1.5,0,2.8-1.3,2.8-2.8v-8.6C55.2,49.3,53.9,48,52.4,48
				L52.4,48z"/>
		</g>
	</g>
	<g>
		<path d="M52.4,49c1,0,1.8,0.8,1.8,1.8v8.6c0,1-0.8,1.8-1.8,1.8H11.6c-1,0-1.8-0.8-1.8-1.8v-8.6c0-1,0.8-1.8,1.8-1.8H52.4 M52.4,48
			H11.6c-1.5,0-2.8,1.3-2.8,2.8v8.6c0,1.5,1.3,2.8,2.8,2.8h40.7c1.5,0,2.8-1.3,2.8-2.8v-8.6C55.2,49.3,53.9,48,52.4,48L52.4,48z"/>
	</g>
	<g>
		<g>
			<path class="st0" d="M10.6,52.9c-1.5,0-2.6-1.2-2.6-2.6V5.3c0-1.5,1.2-2.6,2.6-2.6h42.8c1.5,0,2.6,1.2,2.6,2.6v44.9
				c0,1.5-1.2,2.6-2.6,2.6H10.6z"/>
		</g>
		<g>
			<path d="M53.4,3.2c1.2,0,2.1,1,2.1,2.1v44.9c0,1.2-1,2.1-2.1,2.1H10.6c-1.2,0-2.1-1-2.1-2.1V5.3c0-1.2,1-2.1,2.1-2.1H53.4
				 M53.4,2.2H10.6c-1.7,0-3.1,1.4-3.1,3.1v44.9c0,1.7,1.4,3.1,3.1,3.1h42.8c1.7,0,3.1-1.4,3.1-3.1V5.3C56.5,3.6,55.1,2.2,53.4,2.2
				L53.4,2.2z"/>
		</g>
	</g>
	<g>
		<path class="st7" d="M49.4,35.6H14.6c-0.8,0-1.5-0.7-1.5-1.5V10c0-0.8,0.7-1.5,1.5-1.5h34.7c0.8,0,1.5,0.7,1.5,1.5v24.1
			C50.8,34.9,50.2,35.6,49.4,35.6z"/>
		<path class="st2" d="M49.4,36.1H14.6c-1.1,0-2-0.9-2-2V10c0-1.1,0.9-2,2-2h34.7c1.1,0,2,0.9,2,2v24.1
			C51.3,35.2,50.4,36.1,49.4,36.1z M14.6,9.1c-0.5,0-1,0.4-1,1v24.1c0,0.5,0.4,1,1,1h34.7c0.5,0,1-0.4,1-1V10c0-0.5-0.4-1-1-1H14.6z
			"/>
	</g>
	<g>
		<g>
			<path d="M16.4,42.8c0.4,0,0.7,0.3,0.7,0.7v2.7c0,0.4-0.3,0.7-0.7,0.7h-2.5c-0.4,0-0.7-0.3-0.7-0.7v-2.7c0-0.4,0.3-0.7,0.7-0.7
				H16.4 M16.4,42.1h-2.5c-0.8,0-1.5,0.7-1.5,1.5v2.7c0,0.8,0.7,1.5,1.5,1.5h2.5c0.8,0,1.5-0.7,1.5-1.5v-2.7
				C17.9,42.7,17.2,42.1,16.4,42.1L16.4,42.1z"/>
		</g>
		<g>
			<path class="st11" d="M16.4,42.8h-2.5c-0.4,0-0.7,0.3-0.7,0.7v2.7c0,0.4,0.3,0.7,0.7,0.7h2.5c0.4,0,0.7-0.3,0.7-0.7v-2.7
				C17.1,43.1,16.8,42.8,16.4,42.8z"/>
		</g>
	</g>
	<g>
		<path d="M50.8,43.4H30.6c-0.3,0-0.5-0.2-0.5-0.5s0.2-0.5,0.5-0.5h20.2c0.3,0,0.5,0.2,0.5,0.5S51.1,43.4,50.8,43.4z"/>
	</g>
	<g>
		<path class="st10" d="M31.7,30.1c-0.2,0-0.5-0.2-0.5-0.4L29.6,20l-1.1,3.3c-0.1,0.2-0.3,0.3-0.5,0.3H13.2v-1h14.4l1.6-4.8
			c0.1-0.2,0.3-0.4,0.5-0.3c0.2,0,0.4,0.2,0.5,0.4l1.5,8.5l1.8-12.3c0-0.2,0.2-0.4,0.5-0.4c0.2,0,0.5,0.1,0.5,0.4l2,8.2l14.4,0.4
			l0,1L36,23.3c-0.2,0-0.4-0.2-0.5-0.4l-1.4-6l-1.9,12.8C32.2,29.9,32,30.1,31.7,30.1C31.8,30.1,31.7,30.1,31.7,30.1z"/>
	</g>
	<g>
		<path class="st2" d="M49.4,36.1H14.6c-1.1,0-2-0.9-2-2V10c0-1.1,0.9-2,2-2h34.7c1.1,0,2,0.9,2,2v24.1
			C51.3,35.2,50.4,36.1,49.4,36.1z M14.6,9.1c-0.5,0-1,0.4-1,1v24.1c0,0.5,0.4,1,1,1h34.7c0.5,0,1-0.4,1-1V10c0-0.5-0.4-1-1-1H14.6z
			"/>
	</g>
</g>
</svg>
