<?xml version="1.0" encoding="utf-8"?>
<!-- Generator: Adobe Illustrator 20.1.0, SVG Export Plug-In . SVG Version: 6.00 Build 0)  -->
<svg version="1.1" id="Layer_1" xmlns="http://www.w3.org/2000/svg" xmlns:xlink="http://www.w3.org/1999/xlink" x="0px" y="0px"
	 viewBox="0 0 64 64" style="enable-background:new 0 0 64 64;" xml:space="preserve">
<style type="text/css">
	.st0{fill:#DEDEDE;}
	.st1{fill:#FFFFFF;}
	.st2{fill:#231F20;}
	.st3{fill:#0000FF;}
	.st4{clip-path:url(#SVGID_2_);}
	.st5{fill:none;}
	.st6{clip-path:url(#SVGID_4_);}
	.st7{fill:#5D5D5D;}
	.st8{fill:#FF0080;}
	.st9{fill:#FFFF00;}
	.st10{fill:#00FF80;}
	.st11{fill-rule:evenodd;clip-rule:evenodd;fill:#00FF80;}
	.st12{clip-path:url(#SVGID_6_);}
	.st13{clip-path:url(#SVGID_8_);}
	.st14{clip-path:url(#SVGID_10_);}
	.st15{display:none;fill:none;stroke:#FF0080;stroke-linecap:round;stroke-miterlimit:10;}
	.st16{clip-path:url(#SVGID_12_);}
	.st17{clip-path:url(#SVGID_14_);}
	.st18{clip-path:url(#SVGID_16_);}
	.st19{clip-path:url(#SVGID_18_);}
	.st20{clip-path:url(#SVGID_20_);}
	.st21{clip-path:url(#SVGID_22_);}
	.st22{clip-path:url(#SVGID_24_);}
	.st23{clip-path:url(#SVGID_26_);}
	.st24{clip-path:url(#SVGID_28_);}
	.st25{clip-path:url(#SVGID_30_);}
	.st26{clip-path:url(#SVGID_32_);}
	.st27{clip-path:url(#SVGID_34_);}
	.st28{clip-path:url(#SVGID_36_);}
	.st29{clip-path:url(#SVGID_38_);}
</style>
<g>
	<g>
		<rect x="26.7" y="28.1" transform="matrix(-1.836970e-16 1 -1 -1.836970e-16 86.851 22.851)" width="10.7" height="53.4"/>
	</g>
	<g>
		<g>
			
				<rect x="30.6" y="21.3" transform="matrix(-1.836970e-16 1 -1 -1.836970e-16 79.9719 -26.7618)" class="st3" width="45.6" height="10.7"/>
		</g>
		<g>
			
				<rect x="19.9" y="21.3" transform="matrix(-1.836970e-16 1 -1 -1.836970e-16 69.2885 -16.0784)" class="st8" width="45.6" height="10.7"/>
		</g>
		<g>
			
				<rect x="-1.5" y="21.3" transform="matrix(-1.836970e-16 1 -1 -1.836970e-16 47.9216 5.2885)" class="st9" width="45.6" height="10.7"/>
		</g>
		<g>
			
				<rect x="9.2" y="21.3" transform="matrix(-1.836970e-16 1 -1 -1.836970e-16 58.6051 -5.3949)" class="st10" width="45.6" height="10.7"/>
		</g>
		<g>
			
				<rect x="-12.2" y="21.4" transform="matrix(-1.836970e-16 1 -1 -1.836970e-16 37.3445 16.0783)" class="st0" width="45.6" height="10.7"/>
		</g>
	</g>
	<g>
		
			<rect x="16" y="49.5" transform="matrix(-1.836970e-16 1 -1 -1.836970e-16 76.1676 33.5345)" class="st1" width="10.7" height="10.7"/>
	</g>
	<g>
		<g>
			<polygon class="st2" points="59.2,60.7 4.8,60.7 4.8,3.4 16,3.4 26.7,3.3 59.2,3.3 59.2,49.4 58.2,49.4 58.2,4.3 26.7,4.3 
				16,4.4 5.8,4.4 5.8,59.7 58.2,59.7 58.2,49.5 59.2,49.5 			"/>
		</g>
	</g>
</g>
</svg>
