<?xml version="1.0" encoding="utf-8"?>
<!-- Generator: Adobe Illustrator 20.1.0, SVG Export Plug-In . SVG Version: 6.00 Build 0)  -->
<svg version="1.1" id="Layer_1" xmlns="http://www.w3.org/2000/svg" xmlns:xlink="http://www.w3.org/1999/xlink" x="0px" y="0px"
	 viewBox="0 0 64 64" style="enable-background:new 0 0 64 64;" xml:space="preserve">
<style type="text/css">
	.st0{fill:#DEDEDE;}
	.st1{fill:#FFFFFF;}
	.st2{fill:#231F20;}
	.st3{fill:#0000FF;}
	.st4{clip-path:url(#SVGID_2_);}
	.st5{fill:none;}
	.st6{clip-path:url(#SVGID_4_);}
	.st7{fill:#5D5D5D;}
	.st8{fill:#FF0080;}
	.st9{fill:#FFFF00;}
	.st10{fill:#00FF80;}
	.st11{fill-rule:evenodd;clip-rule:evenodd;fill:#00FF80;}
	.st12{clip-path:url(#SVGID_6_);}
	.st13{clip-path:url(#SVGID_8_);}
	.st14{clip-path:url(#SVGID_10_);}
	.st15{display:none;fill:none;stroke:#FF0080;stroke-linecap:round;stroke-miterlimit:10;}
	.st16{clip-path:url(#SVGID_12_);}
	.st17{clip-path:url(#SVGID_14_);}
	.st18{clip-path:url(#SVGID_16_);}
	.st19{clip-path:url(#SVGID_18_);}
	.st20{clip-path:url(#SVGID_20_);}
	.st21{clip-path:url(#SVGID_22_);}
	.st22{clip-path:url(#SVGID_24_);}
	.st23{clip-path:url(#SVGID_26_);}
	.st24{clip-path:url(#SVGID_28_);}
	.st25{clip-path:url(#SVGID_30_);}
	.st26{clip-path:url(#SVGID_32_);}
	.st27{clip-path:url(#SVGID_34_);}
	.st28{clip-path:url(#SVGID_36_);}
	.st29{clip-path:url(#SVGID_38_);}
</style>
<g>
	<g>
		<g>
			<g>
				<g>
					<g>
						<defs>
							<polygon id="SVGID_5_" points="24,-67.8 24,-21.6 58.2,-21.6 58.2,-55 45.5,-67.8 							"/>
						</defs>
						<clipPath id="SVGID_2_">
							<use xlink:href="#SVGID_5_"  style="overflow:visible;"/>
						</clipPath>
						<g class="st4">
							<rect y="-42.4" class="st5" width="62.8" height="62.8"/>
							<rect y="-42.4" class="st1" width="62.8" height="62.8"/>
						</g>
					</g>
				</g>
			</g>
		</g>
	</g>
	<g>
		<g>
			<g>
				<g>
					<g>
						<defs>
							<polygon id="SVGID_7_" points="14.9,-75.1 14.9,-28.9 49.1,-28.9 49.1,-62.3 36.4,-75.1 							"/>
						</defs>
						<clipPath id="SVGID_4_">
							<use xlink:href="#SVGID_7_"  style="overflow:visible;"/>
						</clipPath>
						<g class="st6">
							<rect y="-42.4" class="st5" width="62.8" height="62.8"/>
							<rect y="-42.4" class="st1" width="62.8" height="62.8"/>
						</g>
					</g>
				</g>
			</g>
		</g>
	</g>
	<g>
		<g>
			<g>
				<g>
					<g>
						<defs>
							<polygon id="SVGID_9_" points="5.8,-82.4 5.8,-36.2 40,-36.2 40,-69.6 27.3,-82.4 							"/>
						</defs>
						<clipPath id="SVGID_6_">
							<use xlink:href="#SVGID_9_"  style="overflow:visible;"/>
						</clipPath>
						<g class="st12">
							<rect y="-42.4" class="st5" width="62.8" height="62.8"/>
							<rect y="-42.4" class="st1" width="62.8" height="62.8"/>
						</g>
					</g>
				</g>
			</g>
		</g>
	</g>
</g>
<g>
	<g>
		<g>
			<g>
				<g>
					<defs>
						<path id="SVGID_13_" d="M57.7,21.9c-1.3-1.8-2.8-3.4-4.5-4.8L37.5,36.6L57.7,21.9z"/>
					</defs>
					<clipPath id="SVGID_8_">
						<use xlink:href="#SVGID_13_"  style="overflow:visible;"/>
					</clipPath>
					<g class="st13">
						<rect y="-42.4" class="st5" width="62.8" height="62.8"/>
						<rect y="-42.4" class="st9" width="62.8" height="62.8"/>
					</g>
					<g class="st13">
						<rect y="20.5" class="st5" width="62.8" height="62.8"/>
						<rect y="20.5" class="st9" width="62.8" height="62.8"/>
					</g>
				</g>
			</g>
			<g>
				<g>
					<defs>
						<path id="SVGID_15_" d="M53.1,17.1c-1.8-1.4-3.7-2.5-5.7-3.4l-10,22.9L53.1,17.1z"/>
					</defs>
					<clipPath id="SVGID_10_">
						<use xlink:href="#SVGID_15_"  style="overflow:visible;"/>
					</clipPath>
					<g class="st14">
						<rect y="-42.4" class="st5" width="62.8" height="62.8"/>
						<rect y="-42.4" class="st10" width="62.8" height="62.8"/>
					</g>
					<g class="st14">
						<rect y="20.5" class="st5" width="62.8" height="62.8"/>
						<rect y="20.5" class="st10" width="62.8" height="62.8"/>
					</g>
				</g>
			</g>
			<g>
				<g>
					<defs>
						<path id="SVGID_17_" d="M33.8,61.3c8.5,1.3,17.4-1.9,23.2-9.1s6.9-16.6,3.8-24.6l-23.3,8.9L33.8,61.3z"/>
					</defs>
					<clipPath id="SVGID_12_">
						<use xlink:href="#SVGID_17_"  style="overflow:visible;"/>
					</clipPath>
					<g class="st16">
						<rect y="20.5" class="st5" width="62.8" height="62.8"/>
						<rect y="20.5" class="st0" width="62.8" height="62.8"/>
					</g>
				</g>
			</g>
			<g>
				<g>
					<defs>
						<path id="SVGID_19_" d="M60.8,27.7c-0.8-2-1.8-4-3.1-5.8L37.5,36.6L60.8,27.7z"/>
					</defs>
					<clipPath id="SVGID_14_">
						<use xlink:href="#SVGID_19_"  style="overflow:visible;"/>
					</clipPath>
					<g class="st17">
						<rect y="20.5" class="st5" width="62.8" height="62.8"/>
						<rect y="20.5" class="st8" width="62.8" height="62.8"/>
					</g>
				</g>
			</g>
			<g>
				<g>
					<defs>
						<path id="SVGID_21_" d="M47.4,13.7c-2-0.9-4.2-1.5-6.3-1.8l-3.7,24.7L47.4,13.7z"/>
					</defs>
					<clipPath id="SVGID_16_">
						<use xlink:href="#SVGID_21_"  style="overflow:visible;"/>
					</clipPath>
					<g class="st18">
						<rect y="-42.4" class="st5" width="62.8" height="62.8"/>
						<rect y="-42.4" class="st3" width="62.8" height="62.8"/>
					</g>
					<g class="st18">
						<rect y="20.5" class="st5" width="62.8" height="62.8"/>
						<rect y="20.5" class="st3" width="62.8" height="62.8"/>
					</g>
				</g>
			</g>
			<g>
				<g>
					<defs>
						<path id="SVGID_23_" d="M41.1,11.9c-8.5-1.3-17.4,1.9-23.2,9.1s-6.9,16.6-3.8,24.6l23.3-8.9L41.1,11.9z"/>
					</defs>
					<clipPath id="SVGID_18_">
						<use xlink:href="#SVGID_23_"  style="overflow:visible;"/>
					</clipPath>
					<g class="st19">
						<rect y="-42.4" class="st5" width="62.8" height="62.8"/>
						<rect y="-42.4" class="st0" width="62.8" height="62.8"/>
					</g>
					<g class="st19">
						<rect y="20.5" class="st5" width="62.8" height="62.8"/>
						<rect y="20.5" class="st0" width="62.8" height="62.8"/>
					</g>
				</g>
			</g>
			<g>
				<g>
					<defs>
						<path id="SVGID_25_" d="M37.5,36.6l-10,22.9c2,0.9,4.2,1.5,6.3,1.8L37.5,36.6z"/>
					</defs>
					<clipPath id="SVGID_20_">
						<use xlink:href="#SVGID_25_"  style="overflow:visible;"/>
					</clipPath>
					<g class="st20">
						<rect y="20.5" class="st5" width="62.8" height="62.8"/>
						<rect y="20.5" class="st3" width="62.8" height="62.8"/>
					</g>
				</g>
			</g>
			<g>
				<g>
					<defs>
						<path id="SVGID_27_" d="M21.8,56.1c1.8,1.4,3.7,2.5,5.7,3.4l10-22.9L21.8,56.1z"/>
					</defs>
					<clipPath id="SVGID_22_">
						<use xlink:href="#SVGID_27_"  style="overflow:visible;"/>
					</clipPath>
					<g class="st21">
						<rect y="20.5" class="st5" width="62.8" height="62.8"/>
						<rect y="20.5" class="st10" width="62.8" height="62.8"/>
					</g>
				</g>
			</g>
			<g>
				<g>
					<defs>
						<path id="SVGID_29_" d="M17.2,51.3c1.3,1.8,2.8,3.4,4.5,4.8l15.7-19.5L17.2,51.3z"/>
					</defs>
					<clipPath id="SVGID_24_">
						<use xlink:href="#SVGID_29_"  style="overflow:visible;"/>
					</clipPath>
					<g class="st22">
						<rect y="20.5" class="st5" width="62.8" height="62.8"/>
						<rect y="20.5" class="st9" width="62.8" height="62.8"/>
					</g>
				</g>
			</g>
			<g>
				<g>
					<defs>
						<path id="SVGID_31_" d="M14.1,45.5c0.8,2,1.8,4,3.1,5.8l20.2-14.7L14.1,45.5z"/>
					</defs>
					<clipPath id="SVGID_26_">
						<use xlink:href="#SVGID_31_"  style="overflow:visible;"/>
					</clipPath>
					<g class="st23">
						<rect y="20.5" class="st5" width="62.8" height="62.8"/>
						<rect y="20.5" class="st8" width="62.8" height="62.8"/>
					</g>
				</g>
			</g>
		</g>
		<g>
			<path class="st2" d="M37.4,62.1c-5.6,0-11.2-1.8-15.9-5.6c-5.3-4.3-8.6-10.3-9.4-17.1c-0.7-6.8,1.2-13.4,5.5-18.7
				c4.3-5.3,10.3-8.6,17.1-9.4c6.8-0.7,13.4,1.2,18.7,5.5s8.6,10.3,9.4,17.1c0.7,6.8-1.2,13.4-5.5,18.7l0,0
				C52.3,58.8,44.9,62.1,37.4,62.1z M37.5,12.1c-7.2,0-14.3,3.1-19.1,9.2c-4.1,5.1-6,11.5-5.3,18c0.7,6.5,3.9,12.3,9,16.4
				c10.5,8.5,26,6.8,34.5-3.8l0,0c4.1-5.1,6-11.5,5.3-18c-0.7-6.5-3.9-12.3-9-16.4C48.3,13.9,42.9,12.1,37.5,12.1z"/>
		</g>
		<g>
			<g>
				<defs>
					
						<ellipse id="SVGID_33_" transform="matrix(0.6261 -0.7798 0.7798 0.6261 -14.5262 42.884)" cx="37.5" cy="36.6" rx="9.3" ry="9.3"/>
				</defs>
				<clipPath id="SVGID_28_">
					<use xlink:href="#SVGID_33_"  style="overflow:visible;"/>
				</clipPath>
				<g class="st24">
					<rect y="20.5" class="st5" width="62.8" height="62.8"/>
					<rect y="20.5" class="st0" width="62.8" height="62.8"/>
				</g>
			</g>
			<path class="st2" d="M37.4,46.4c-2.2,0-4.3-0.7-6.1-2.2c-4.2-3.4-4.9-9.6-1.5-13.8c3.4-4.2,9.6-4.9,13.8-1.5c2,1.6,3.3,4,3.6,6.6
				c0.3,2.6-0.5,5.2-2.1,7.2l0,0C43.2,45.1,40.3,46.4,37.4,46.4z M37.5,27.8c-2.6,0-5.1,1.1-6.9,3.3c-3,3.8-2.4,9.3,1.4,12.4
				c3.8,3,9.3,2.4,12.4-1.4l0,0c1.5-1.8,2.1-4.1,1.9-6.5s-1.4-4.4-3.2-5.9C41.3,28.4,39.4,27.8,37.5,27.8z"/>
		</g>
		<g>
			<g>
				<g>
					<defs>
						<path id="SVGID_35_" d="M37.4,41.5c-1.1,0-2.2-0.4-3.1-1.1c-1-0.8-1.7-2-1.8-3.3s0.2-2.6,1.1-3.6c0.9-1.2,2.3-1.8,3.8-1.8
							c1.1,0,2.2,0.4,3.1,1.1c1,0.8,1.7,2,1.8,3.3c0.1,1.3-0.2,2.6-1.1,3.6C40.4,40.8,39,41.5,37.4,41.5z"/>
					</defs>
					<clipPath id="SVGID_30_">
						<use xlink:href="#SVGID_35_"  style="overflow:visible;"/>
					</clipPath>
					<g class="st25">
						<rect y="20.5" class="st5" width="62.8" height="62.8"/>
						<rect y="20.5" class="st1" width="62.8" height="62.8"/>
					</g>
				</g>
			</g>
			<g>
				<path d="M37.5,32.2c1,0,2,0.3,2.8,1c1.9,1.5,2.2,4.3,0.7,6.2C40,40.4,38.7,41,37.4,41c-1,0-2-0.3-2.8-1
					c-1.9-1.5-2.2-4.3-0.7-6.2C34.9,32.7,36.2,32.2,37.5,32.2 M37.5,31.2L37.5,31.2c-1.7,0-3.2,0.7-4.2,2c-0.9,1.1-1.3,2.5-1.2,4
					c0.2,1.4,0.9,2.7,2,3.6c1,0.8,2.2,1.2,3.4,1.2c1.7,0,3.2-0.7,4.2-2c0.9-1.1,1.3-2.5,1.2-4c-0.2-1.4-0.9-2.7-2-3.6
					C39.9,31.6,38.7,31.2,37.5,31.2L37.5,31.2z"/>
			</g>
		</g>
	</g>
	<g>
		<g>
			<g>
				<defs>
					<path id="SVGID_37_" d="M5.7,34.8c-2.4,0-4.3-1.3-4.6-3c-0.5-2.2,1.3-4.6,4.1-5.3c0.5-0.1,1.1-0.2,1.6-0.2c0.4,0,0.8,0,1.2,0.1
						V4.9l19.1-3.1v25.1c0,2.3-1.6,4.1-4.3,4.7c-0.5,0.1-1.1,0.2-1.6,0.2c-2.3,0-4.1-1.2-4.6-3c-0.6-2.3,1.3-4.7,4.2-5.4
						c0.5-0.1,1.1-0.2,1.6-0.2c0.4,0,0.9,0,1.3,0.1V9.9l-12.3,2.2l-0.1,18.5h0c-0.3,1.8-1.9,3.4-4.2,4C6.8,34.7,6.3,34.8,5.7,34.8z"
						/>
				</defs>
				<clipPath id="SVGID_32_">
					<use xlink:href="#SVGID_37_"  style="overflow:visible;"/>
				</clipPath>
				<g class="st26">
					<rect y="-42.4" class="st5" width="62.8" height="62.8"/>
					<rect y="-42.4" class="st9" width="62.8" height="62.8"/>
				</g>
				<g class="st26">
					<rect y="20.5" class="st5" width="62.8" height="62.8"/>
					<rect y="20.5" class="st9" width="62.8" height="62.8"/>
				</g>
			</g>
		</g>
		<g>
			<path d="M26.7,2.4v24.5c0,2-1.5,3.6-3.9,4.2c-0.5,0.1-1,0.2-1.5,0.2c-2,0-3.7-1-4.1-2.6c-0.5-2,1.2-4.1,3.8-4.8
				c0.5-0.1,1-0.2,1.5-0.2c0.6,0,1.2,0.1,1.8,0.3V9.3l-13.2,2.4L11,30.1h0c0,1.7-1.6,3.4-3.8,4c-0.5,0.1-0.9,0.2-1.4,0.2
				c-2.1,0-3.9-1.1-4.1-2.6c-0.5-2,1.2-4.1,3.8-4.7c0.5-0.1,1-0.2,1.5-0.2c0.6,0,1.2,0.1,1.7,0.3V5.3L26.7,2.4 M27.7,1.2l-1.2,0.2
				L8.4,4.4L7.6,4.5v0.9v20.5c-0.2,0-0.5,0-0.7,0c-0.6,0-1.2,0.1-1.7,0.2c-3.1,0.8-5.1,3.4-4.5,5.9c0.3,1.9,2.5,3.4,5.1,3.4
				c0.6,0,1.1-0.1,1.7-0.2c2.2-0.6,4-2.1,4.5-4H12l0-1l0.1-17.5l11.3-2.1v12.3c-0.3,0-0.5,0-0.8,0c-0.6,0-1.2,0.1-1.7,0.2
				c-3.1,0.8-5.1,3.5-4.5,6c0.5,2,2.5,3.4,5.1,3.4c0.6,0,1.2-0.1,1.7-0.2c2.8-0.7,4.6-2.8,4.6-5.2V2.4V1.2L27.7,1.2z"/>
		</g>
	</g>
</g>
</svg>
