<?xml version="1.0" encoding="utf-8"?>
<!-- Generator: Adobe Illustrator 20.1.0, SVG Export Plug-In . SVG Version: 6.00 Build 0)  -->
<svg version="1.1" id="Layer_1" xmlns="http://www.w3.org/2000/svg" xmlns:xlink="http://www.w3.org/1999/xlink" x="0px" y="0px"
	 viewBox="0 0 64 64" style="enable-background:new 0 0 64 64;" xml:space="preserve">
<style type="text/css">
	.st0{fill:#DEDEDE;}
	.st1{fill:#FFFFFF;}
	.st2{fill:#231F20;}
	.st3{fill:#0000FF;}
	.st4{clip-path:url(#SVGID_2_);}
	.st5{fill:none;}
	.st6{clip-path:url(#SVGID_4_);}
	.st7{fill:#5D5D5D;}
	.st8{fill:#FF0080;}
	.st9{fill:#FFFF00;}
	.st10{fill:#00FF80;}
	.st11{fill-rule:evenodd;clip-rule:evenodd;fill:#00FF80;}
	.st12{clip-path:url(#SVGID_6_);}
	.st13{clip-path:url(#SVGID_8_);}
	.st14{clip-path:url(#SVGID_10_);}
	.st15{display:none;fill:none;stroke:#FF0080;stroke-linecap:round;stroke-miterlimit:10;}
	.st16{clip-path:url(#SVGID_12_);}
	.st17{clip-path:url(#SVGID_14_);}
	.st18{clip-path:url(#SVGID_16_);}
	.st19{clip-path:url(#SVGID_18_);}
	.st20{clip-path:url(#SVGID_20_);}
	.st21{clip-path:url(#SVGID_22_);}
	.st22{clip-path:url(#SVGID_24_);}
	.st23{clip-path:url(#SVGID_26_);}
	.st24{clip-path:url(#SVGID_28_);}
	.st25{clip-path:url(#SVGID_30_);}
	.st26{clip-path:url(#SVGID_32_);}
	.st27{clip-path:url(#SVGID_34_);}
	.st28{clip-path:url(#SVGID_36_);}
	.st29{clip-path:url(#SVGID_38_);}
</style>
<g>
	<g>
		<g>
			<defs>
				<circle id="SVGID_1_" cx="-52" cy="32" r="30"/>
			</defs>
			<clipPath id="SVGID_2_">
				<use xlink:href="#SVGID_1_"  style="overflow:visible;"/>
			</clipPath>
			<g class="st4">
				<rect x="-42.4" class="st5" width="62.8" height="62.8"/>
				<rect x="-42.4" class="st1" width="62.8" height="62.8"/>
			</g>
		</g>
	</g>
	<g>
		<g>
			<defs>
				<circle id="SVGID_3_" cx="-52" cy="32" r="28.4"/>
			</defs>
			<clipPath id="SVGID_4_">
				<use xlink:href="#SVGID_3_"  style="overflow:visible;"/>
			</clipPath>
			<g class="st6">
				<rect x="-42.4" class="st5" width="62.8" height="62.8"/>
				<rect x="-42.4" class="st7" width="62.8" height="62.8"/>
			</g>
		</g>
	</g>
</g>
<g>
	<g>
		<g>
			<rect x="17.7" y="6.3" class="st0" width="31.3" height="13.2"/>
		</g>
		<g>
			<g>
				<path d="M48.5,6.8V19H18.2V6.8H48.5 M49.5,5.8H17.2V20h32.3V5.8L49.5,5.8z"/>
			</g>
		</g>
	</g>
	<g>
		<g>
			<polygon class="st1" points="17.5,6.1 15.7,2.5 46.8,2.5 48.7,6.1 			"/>
		</g>
		<g>
			<g>
				<path d="M46.5,3l1.3,2.7h-30L16.5,3H46.5 M47.1,2H14.9l2.3,4.7h32.3L47.1,2L47.1,2z"/>
			</g>
		</g>
	</g>
	<g>
		<g>
			<polygon class="st1" points="10.3,28.3 12.8,23.7 19.3,23.5 15,28.7 			"/>
		</g>
		<g>
			<path d="M18.3,24.1l-3.5,4.2l-3.6-0.4l2-3.7L18.3,24.1 M20.4,23l-7.9,0.1l-3,5.5l5.6,0.6L20.4,23L20.4,23z"/>
		</g>
	</g>
	<g>
		<g>
			<rect x="17.7" y="18.7" class="st7" width="31.3" height="37.9"/>
		</g>
		<g>
			<path d="M48.5,19.2v36.9H18.2V19.2H48.5 M49.5,18.2H17.2v38.9h32.3V18.2L49.5,18.2z"/>
		</g>
	</g>
	<g>
		<g>
			<rect x="14.8" y="10.7" class="st1" width="27.7" height="22"/>
		</g>
		<g>
			<path d="M42,11.2v21H15.3v-21H42 M43,10.2H14.3v23H43V10.2L43,10.2z"/>
		</g>
	</g>
	<g>
		<g>
			<polygon class="st8" points="21.1,24.1 18.2,19.4 21.1,14.7 24,19.4 			"/>
		</g>
		<g>
			<polygon class="st8" points="36.2,24.1 33.3,19.4 36.2,14.7 39.1,19.4 			"/>
		</g>
	</g>
	<g>
		<polygon class="st0" points="44.8,62 49.5,57.1 49.5,18.2 44.8,23.2 		"/>
	</g>
	<g>
		<g>
			<polygon class="st1" points="36.2,61.5 44.1,23.9 49,19.4 49,56.9 44.6,61.5 			"/>
		</g>
		<g>
			<path d="M48.5,20.5v36.2L44.4,61h-7.5l7.7-36.9L48.5,20.5 M49.5,18.2l-5.9,5.4l-8,38.4h9.2l4.7-4.9V18.2L49.5,18.2z"/>
		</g>
	</g>
	<g>
		<g>
			<path class="st0" d="M13,61.5V23.7h9.8c0,0.1,0,0.2,0,0.3c0,3.2,2.6,5.8,5.8,5.8s5.8-2.6,5.8-5.8c0-0.1,0-0.2,0-0.3h9.8v37.9H13z
				"/>
		</g>
		<g>
			<path d="M43.8,24.2V61H13.5V24.2h8.8c0.1,3.4,2.9,6.2,6.3,6.2c3.4,0,6.2-2.7,6.3-6.2H43.8 M44.8,23.2H33.9c0,0.3,0.1,0.5,0.1,0.8
				c0,3-2.4,5.3-5.3,5.3c-3,0-5.3-2.4-5.3-5.3c0-0.3,0-0.6,0.1-0.8H12.5V62h32.3V23.2L44.8,23.2z"/>
		</g>
	</g>
	<g>
		<g>
			<path class="st3" d="M16.8,57.7V27.5H24c1.1,1.5,2.8,2.3,4.7,2.3c1.9,0,3.6-0.9,4.7-2.3h7.1v30.3H16.8z"/>
		</g>
		<g>
			<path d="M40,28v29.3H17.3V28h6.4c1.2,1.5,3,2.3,4.9,2.3c1.9,0,3.7-0.9,4.9-2.3H40 M41,27h-7.9c-1,1.4-2.6,2.3-4.4,2.3
				c-1.8,0-3.5-0.9-4.4-2.3h-7.9v31.3H41V27L41,27z"/>
		</g>
	</g>
	<g>
		<g>
			<polygon class="st1" points="44.4,23.6 49.5,18.9 53.7,22.4 48.6,27.1 			"/>
		</g>
		<g>
			<path d="M49.5,19.6l3.4,2.9l-4.4,4.1l-3.4-2.9L49.5,19.6 M49.5,18.2l-5.9,5.4l5,4.1l5.9-5.4L49.5,18.2L49.5,18.2z"/>
		</g>
	</g>
</g>
<g>
	<g>
		<g>
			<g>
				<defs>
					<path id="SVGID_11_" d="M4.6,119.9l14.9-26.5c0.3-0.6,1.1-0.7,1.6-0.3l6.1,5.6c0.3,0.3,0.3,0.7,0,1l-2.1,2.3
						c-0.3,0.3-0.7,0.3-1,0l-2.4-2.2c-0.2-0.2-0.6-0.1-0.7,0.2l-7.5,20.6H5C4.6,120.6,4.4,120.2,4.6,119.9z"/>
				</defs>
				<clipPath id="SVGID_6_">
					<use xlink:href="#SVGID_11_"  style="overflow:visible;"/>
				</clipPath>
				<g class="st12">
					<rect x="20.5" y="62.8" class="st5" width="62.8" height="62.8"/>
					<rect x="20.5" y="62.8" class="st0" width="62.8" height="62.8"/>
				</g>
				<g class="st12">
					<rect x="-42.4" y="62.8" class="st5" width="62.8" height="62.8"/>
					<rect x="-42.4" y="62.8" class="st0" width="62.8" height="62.8"/>
				</g>
			</g>
		</g>
	</g>
</g>
</svg>
