<?xml version="1.0" encoding="utf-8"?>
<!-- Generator: Adobe Illustrator 20.1.0, SVG Export Plug-In . SVG Version: 6.00 Build 0)  -->
<svg version="1.1" id="Layer_1" xmlns="http://www.w3.org/2000/svg" xmlns:xlink="http://www.w3.org/1999/xlink" x="0px" y="0px"
	 viewBox="0 0 64 64" style="enable-background:new 0 0 64 64;" xml:space="preserve">
<style type="text/css">
	.st0{fill:#DEDEDE;}
	.st1{fill:#FFFFFF;}
	.st2{fill:#231F20;}
	.st3{fill:#0000FF;}
	.st4{clip-path:url(#SVGID_2_);}
	.st5{fill:none;}
	.st6{clip-path:url(#SVGID_4_);}
	.st7{fill:#5D5D5D;}
	.st8{fill:#FF0080;}
	.st9{fill:#FFFF00;}
	.st10{fill:#00FF80;}
	.st11{fill-rule:evenodd;clip-rule:evenodd;fill:#00FF80;}
	.st12{clip-path:url(#SVGID_6_);}
	.st13{clip-path:url(#SVGID_8_);}
	.st14{clip-path:url(#SVGID_10_);}
	.st15{display:none;fill:none;stroke:#FF0080;stroke-linecap:round;stroke-miterlimit:10;}
	.st16{clip-path:url(#SVGID_12_);}
	.st17{clip-path:url(#SVGID_14_);}
	.st18{clip-path:url(#SVGID_16_);}
	.st19{clip-path:url(#SVGID_18_);}
	.st20{clip-path:url(#SVGID_20_);}
	.st21{clip-path:url(#SVGID_22_);}
	.st22{clip-path:url(#SVGID_24_);}
	.st23{clip-path:url(#SVGID_26_);}
	.st24{clip-path:url(#SVGID_28_);}
	.st25{clip-path:url(#SVGID_30_);}
	.st26{clip-path:url(#SVGID_32_);}
	.st27{clip-path:url(#SVGID_34_);}
	.st28{clip-path:url(#SVGID_36_);}
	.st29{clip-path:url(#SVGID_38_);}
</style>
<g>
	<g>
		<g>
			<g>
				<path class="st0" d="M62.8,27.9c0-12.6-12.9-22.8-28.9-22.8S5,15.3,5,27.9C5,39,15,48.2,28.3,50.2c3.7,5.2,11.2,12.6,11.2,12.6
					V50.2C52.8,48.1,62.8,38.9,62.8,27.9z"/>
			</g>
			<g>
				<path class="st0" d="M40.1,64.1l-0.8-0.8c-0.1-0.1-7.5-7.3-11.2-12.5C14.4,48.5,4.5,39,4.5,27.9c0-12.8,13.2-23.3,29.4-23.3
					s29.4,10.4,29.4,23.3c0,10.9-9.7,20.4-23.2,22.7V64.1z M33.9,5.7c-15.7,0-28.4,10-28.4,22.3c0,10.6,9.7,19.8,23,21.8l0.2,0
					l0.1,0.2c2.9,4.1,8.3,9.6,10.3,11.7V49.8l0.4-0.1c13.2-2.1,22.8-11.3,22.8-21.8C62.3,15.6,49.5,5.7,33.9,5.7z"/>
			</g>
		</g>
		<g>
			<g>
				<path class="st1" d="M59,23.9C59,11.3,46.1,1.1,30.1,1.1S1.2,11.3,1.2,23.9c0,11.1,10.1,20.3,23.4,22.3
					c3.7,5.2,11.2,12.6,11.2,12.6V46.2C49.1,44.1,59,34.9,59,23.9z"/>
			</g>
			<g>
				<path class="st2" d="M36.4,60l-0.8-0.8c-0.1-0.1-7.5-7.3-11.2-12.5C10.7,44.5,0.7,35,0.7,23.9c0-12.8,13.2-23.3,29.4-23.3
					s29.4,10.4,29.4,23.3c0,10.9-9.7,20.4-23.2,22.7V60z M30.1,1.6c-15.7,0-28.4,10-28.4,22.3c0,10.6,9.7,19.8,23,21.8l0.2,0
					l0.1,0.2c2.9,4.1,8.3,9.6,10.3,11.7V45.8l0.4-0.1C49,43.6,58.5,34.4,58.5,23.9C58.5,11.6,45.8,1.6,30.1,1.6z"/>
			</g>
		</g>
	</g>
	<g>
		<g>
			<path class="st3" d="M29.2,9.2c1.6,0,3.1,0.3,4.7,1c1.7,0.7,2.9,1.7,3.9,2.9c0.9,1.2,1.4,2.5,1.4,3.9c0,1.6-0.7,3-2,4.1
				c-0.3,0.3-1.4,0.9-3.1,1.7c-0.6,0.3-1.1,0.6-1.4,0.9c-0.3,0.3-0.6,0.7-0.8,1.1c-0.5,1-0.9,1.7-1.2,1.9c-0.4,0.3-1,0.4-1.9,0.4
				c-0.8,0-1.5-0.2-2-0.7c-0.5-0.5-0.7-1.2-0.7-2c0-0.8,0.2-1.6,0.6-2.4c0.1-0.2,0.6-1,1.6-2.5c0.9-1.4,1.4-2.6,1.4-3.8
				c0-0.6-0.1-1.1-0.4-1.5c-0.3-0.4-0.6-0.6-1-0.6c-0.4,0-0.7,0.1-0.9,0.4c-0.2,0.3-0.3,0.8-0.4,1.5c-0.1,1.4-0.6,2.5-1.4,3.2
				c-0.8,0.7-1.8,1.1-3.1,1.1c-0.9,0-1.6-0.2-2.2-0.7c-0.6-0.6-1-1.3-1-2.2c0-1.3,0.5-2.7,1.4-3.9c0.9-1.3,2.1-2.2,3.5-2.8
				C25.8,9.5,27.4,9.2,29.2,9.2z M28.7,29.1c1.2,0,2.2,0.5,3.1,1.4c0.9,0.9,1.3,1.9,1.3,3.1c0,1.2-0.4,2.3-1.3,3.2s-1.9,1.3-3.2,1.3
				c-1.2,0-2.2-0.4-3.1-1.2c-0.9-0.9-1.4-2-1.4-3.3c0-1.2,0.4-2.2,1.2-3.1C26.2,29.6,27.4,29.1,28.7,29.1z"/>
		</g>
	</g>
</g>
<g>
	<g>
		<g>
			<defs>
				<circle id="SVGID_1_" cx="116" cy="32" r="30"/>
			</defs>
			<clipPath id="SVGID_2_">
				<use xlink:href="#SVGID_1_"  style="overflow:visible;"/>
			</clipPath>
			<g class="st4">
				<rect x="62.8" class="st5" width="62.8" height="62.8"/>
				<rect x="62.8" class="st1" width="62.8" height="62.8"/>
			</g>
		</g>
	</g>
	<g>
		<g>
			<defs>
				<circle id="SVGID_3_" cx="116" cy="32" r="28.4"/>
			</defs>
			<clipPath id="SVGID_4_">
				<use xlink:href="#SVGID_3_"  style="overflow:visible;"/>
			</clipPath>
			<g class="st6">
				<rect x="62.8" class="st5" width="62.8" height="62.8"/>
				<rect x="62.8" class="st7" width="62.8" height="62.8"/>
			</g>
		</g>
	</g>
</g>
<g>
	<g>
		<g>
			<g>
				<g>
					<g>
						<defs>
							<polygon id="SVGID_5_" points="24,100.2 24,146.4 58.2,146.4 58.2,113 45.5,100.2 							"/>
						</defs>
						<clipPath id="SVGID_6_">
							<use xlink:href="#SVGID_5_"  style="overflow:visible;"/>
						</clipPath>
						<g class="st12">
							<rect y="62.8" class="st5" width="62.8" height="62.8"/>
							<rect y="62.8" class="st1" width="62.8" height="62.8"/>
						</g>
					</g>
				</g>
			</g>
		</g>
	</g>
	<g>
		<g>
			<g>
				<g>
					<g>
						<defs>
							<polygon id="SVGID_7_" points="14.9,92.9 14.9,139.1 49.1,139.1 49.1,105.7 36.4,92.9 							"/>
						</defs>
						<clipPath id="SVGID_8_">
							<use xlink:href="#SVGID_7_"  style="overflow:visible;"/>
						</clipPath>
						<g class="st13">
							<rect y="62.8" class="st5" width="62.8" height="62.8"/>
							<rect y="62.8" class="st1" width="62.8" height="62.8"/>
						</g>
					</g>
				</g>
			</g>
		</g>
	</g>
	<g>
		<g>
			<g>
				<g>
					<g>
						<defs>
							<polygon id="SVGID_9_" points="5.8,85.6 5.8,131.8 40,131.8 40,98.4 27.3,85.6 							"/>
						</defs>
						<clipPath id="SVGID_10_">
							<use xlink:href="#SVGID_9_"  style="overflow:visible;"/>
						</clipPath>
						<g class="st14">
							<rect y="62.8" class="st5" width="62.8" height="62.8"/>
							<rect y="62.8" class="st1" width="62.8" height="62.8"/>
						</g>
					</g>
				</g>
			</g>
		</g>
	</g>
</g>
</svg>
