<?xml version="1.0" encoding="utf-8"?>
<!-- Generator: Adobe Illustrator 20.1.0, SVG Export Plug-In . SVG Version: 6.00 Build 0)  -->
<svg version="1.1" id="Layer_1" xmlns="http://www.w3.org/2000/svg" xmlns:xlink="http://www.w3.org/1999/xlink" x="0px" y="0px"
	 viewBox="0 0 64 64" style="enable-background:new 0 0 64 64;" xml:space="preserve">
<style type="text/css">
	.st0{fill:#DEDEDE;}
	.st1{fill:#FFFFFF;}
	.st2{fill:#231F20;}
	.st3{fill:#0000FF;}
	.st4{clip-path:url(#SVGID_2_);}
	.st5{fill:none;}
	.st6{clip-path:url(#SVGID_4_);}
	.st7{fill:#5D5D5D;}
	.st8{fill:#FF0080;}
	.st9{fill:#FFFF00;}
	.st10{fill:#00FF80;}
	.st11{fill-rule:evenodd;clip-rule:evenodd;fill:#00FF80;}
	.st12{clip-path:url(#SVGID_6_);}
	.st13{clip-path:url(#SVGID_8_);}
	.st14{clip-path:url(#SVGID_10_);}
	.st15{display:none;fill:none;stroke:#FF0080;stroke-linecap:round;stroke-miterlimit:10;}
	.st16{clip-path:url(#SVGID_12_);}
	.st17{clip-path:url(#SVGID_14_);}
	.st18{clip-path:url(#SVGID_16_);}
	.st19{clip-path:url(#SVGID_18_);}
	.st20{clip-path:url(#SVGID_20_);}
	.st21{clip-path:url(#SVGID_22_);}
	.st22{clip-path:url(#SVGID_24_);}
	.st23{clip-path:url(#SVGID_26_);}
	.st24{clip-path:url(#SVGID_28_);}
	.st25{clip-path:url(#SVGID_30_);}
	.st26{clip-path:url(#SVGID_32_);}
	.st27{clip-path:url(#SVGID_34_);}
	.st28{clip-path:url(#SVGID_36_);}
	.st29{clip-path:url(#SVGID_38_);}
</style>
<g>
	<g>
		<g>
			<g>
				<path class="st10" d="M31.2,58.5C15.6,58.5,2.8,45.7,2.8,30S15.6,1.6,31.2,1.6S59.7,14.3,59.7,30S46.9,58.5,31.2,58.5z"/>
			</g>
			<g>
				<path d="M31.2,2.1c15.4,0,27.9,12.5,27.9,27.9S46.7,58,31.2,58S3.3,45.4,3.3,30S15.8,2.1,31.2,2.1 M31.2,1.1
					c-16,0-28.9,13-28.9,28.9S15.3,59,31.2,59S60.2,46,60.2,30S47.2,1.1,31.2,1.1L31.2,1.1z"/>
			</g>
		</g>
		<g>
			<g>
				<g>
					<path class="st3" d="M54.4,14.5l-0.8,0.3l-4.4,0.4l-1.3,2L47,16.9l-3.5-3.2L42.9,12l-0.7-1.8l-2.2-2l-2.6-0.5l-0.1,1.2
						l-2.7,1.3l-0.8,3.3l-2.3,0.5l0.2,1.8l3,0.6l0.5-2.9l2.5,0.4l1.1,0.7h1.8l1.3,2.5l3.3,3.4l-0.2,1.3l-2.7-0.3l-4.6,2.3l-3.3,4
						L34,29.5h-1.2l-2.2-1l-2.2,1l0.5,2.3l2.5,0.9l1.4,0.4l1.4,1.5l2.2-0.6l2.6,0.4l3,0.8l1.5,0.2l2.5,2.9l4.9,2.9l-3.1,6l-3.3,1.5
						l-1.3,3.4l-4.8,3.2l-0.5,1.8c12.3-3,21.4-14,21.4-27.1C59.2,24.3,57.4,18.9,54.4,14.5z"/>
				</g>
				<g>
					<path class="st3" d="M34.5,44.6l-2-3.8l1.9-3.9l-1.9-0.6l-2.1-2.1l-4.6-1L24.1,30l-4.7-3.5V22l-2.9-4.8l-4.7,0.8H8.7l-1.6-1
						l0-1.1C4.7,20.1,3.3,24.9,3.3,30c0,15.4,12.5,27.9,27.9,27.9c1.2,0,2.4-0.1,3.5-0.2l-0.3-3.4c0,0,1.3-5,1.3-5.2
						C35.7,48.9,34.5,44.6,34.5,44.6z"/>
				</g>
				<g>
					<path class="st3" d="M13.7,11.1l5-0.7l2.3-1.3l2.6,0.7l4.1-0.2L29,7.4l2.1,0.3l5-0.5l1.4-1.5l1.9-1.3l2.7,0.4l1-0.2
						c-3.6-1.7-7.6-2.7-11.9-2.7C22.6,2.1,14.8,6,9.7,12.2h0L13.7,11.1z"/>
				</g>
			</g>
		</g>
	</g>
	<g>
		<path class="st1" d="M62.1,61.9H25.2c-0.5,0-0.8-0.4-0.8-0.8V41.7c0-0.9,0.7-1.6,1.6-1.6h35.3c0.9,0,1.6,0.7,1.6,1.6v19.4
			C62.9,61.6,62.5,61.9,62.1,61.9z"/>
		<path d="M62.1,62.4H25.2c-0.7,0-1.3-0.6-1.3-1.3V41.7c0-1.2,0.9-2.1,2.1-2.1h35.3c1.2,0,2.1,0.9,2.1,2.1v19.4
			C63.4,61.8,62.8,62.4,62.1,62.4z M26,40.6c-0.6,0-1.1,0.5-1.1,1.1v19.4c0,0.2,0.1,0.3,0.3,0.3h36.9c0.2,0,0.3-0.1,0.3-0.3V41.7
			c0-0.6-0.5-1.1-1.1-1.1H26z"/>
	</g>
	<g>
		<path d="M43.4,55.5c-0.6,0-1.2-0.2-1.7-0.5L24.1,42.9l0.6-0.8l17.6,12.1c0.7,0.5,1.6,0.5,2.3,0L62.6,42l0.6,0.8L45.1,54.9
			C44.6,55.3,44,55.5,43.4,55.5z"/>
	</g>
	<g>
		<rect x="22.4" y="55.9" transform="matrix(0.7579 -0.6524 0.6524 0.7579 -29.4172 33.6343)" width="16.5" height="1"/>
	</g>
	<g>
		<rect x="56" y="48" transform="matrix(0.6521 -0.7582 0.7582 0.6521 -23.0662 62.489)" width="1" height="16.7"/>
	</g>
	<g>
		<g>
			<path class="st8" d="M28.5,46.2H1.1c-0.3,0-0.5-0.2-0.5-0.5s0.2-0.5,0.5-0.5h27.4c0.3,0,0.5,0.2,0.5,0.5S28.8,46.2,28.5,46.2z"/>
		</g>
		<g>
			<path class="st8" d="M28.5,51.5H4c-0.3,0-0.5-0.2-0.5-0.5s0.2-0.5,0.5-0.5h24.5c0.3,0,0.5,0.2,0.5,0.5S28.8,51.5,28.5,51.5z"/>
		</g>
		<g>
			<path class="st8" d="M28.5,56.9H8.2c-0.3,0-0.5-0.2-0.5-0.5s0.2-0.5,0.5-0.5h20.3c0.3,0,0.5,0.2,0.5,0.5S28.8,56.9,28.5,56.9z"/>
		</g>
	</g>
</g>
<g>
	<g>
		<g>
			<g>
				<defs>
					<path id="SVGID_11_" d="M88.6,35.9l14.9-26.5c0.3-0.6,1.1-0.7,1.6-0.3l6.1,5.6c0.3,0.3,0.3,0.7,0,1l-2.1,2.3
						c-0.3,0.3-0.7,0.3-1,0l-2.4-2.2c-0.2-0.2-0.6-0.1-0.7,0.2l-7.5,20.6H89C88.6,36.6,88.4,36.2,88.6,35.9z"/>
				</defs>
				<clipPath id="SVGID_2_">
					<use xlink:href="#SVGID_11_"  style="overflow:visible;"/>
				</clipPath>
				<g class="st4">
					<rect x="41.6" y="-21.2" class="st5" width="62.8" height="62.8"/>
					<rect x="41.6" y="-21.2" class="st0" width="62.8" height="62.8"/>
				</g>
			</g>
		</g>
	</g>
</g>
</svg>
