<?xml version="1.0" encoding="utf-8"?>
<!-- Generator: Adobe Illustrator 20.1.0, SVG Export Plug-In . SVG Version: 6.00 Build 0)  -->
<svg version="1.1" id="Layer_1" xmlns="http://www.w3.org/2000/svg" xmlns:xlink="http://www.w3.org/1999/xlink" x="0px" y="0px"
	 viewBox="0 0 64 64" style="enable-background:new 0 0 64 64;" xml:space="preserve">
<style type="text/css">
	.st0{fill:#DEDEDE;}
	.st1{fill:#FFFFFF;}
	.st2{fill:#231F20;}
	.st3{fill:#0000FF;}
	.st4{clip-path:url(#SVGID_2_);}
	.st5{fill:none;}
	.st6{clip-path:url(#SVGID_4_);}
	.st7{fill:#5D5D5D;}
	.st8{fill:#FF0080;}
	.st9{fill:#FFFF00;}
	.st10{fill:#00FF80;}
	.st11{fill-rule:evenodd;clip-rule:evenodd;fill:#00FF80;}
	.st12{clip-path:url(#SVGID_6_);}
	.st13{clip-path:url(#SVGID_8_);}
	.st14{clip-path:url(#SVGID_10_);}
	.st15{display:none;fill:none;stroke:#FF0080;stroke-linecap:round;stroke-miterlimit:10;}
	.st16{clip-path:url(#SVGID_12_);}
	.st17{clip-path:url(#SVGID_14_);}
	.st18{clip-path:url(#SVGID_16_);}
	.st19{clip-path:url(#SVGID_18_);}
	.st20{clip-path:url(#SVGID_20_);}
	.st21{clip-path:url(#SVGID_22_);}
	.st22{clip-path:url(#SVGID_24_);}
	.st23{clip-path:url(#SVGID_26_);}
	.st24{clip-path:url(#SVGID_28_);}
	.st25{clip-path:url(#SVGID_30_);}
	.st26{clip-path:url(#SVGID_32_);}
	.st27{clip-path:url(#SVGID_34_);}
	.st28{clip-path:url(#SVGID_36_);}
	.st29{clip-path:url(#SVGID_38_);}
</style>
<g>
	<g>
		<g>
			<g>
				<g>
					<g>
						<defs>
							<polygon id="SVGID_5_" points="24,16.2 24,62.4 58.2,62.4 58.2,29 45.5,16.2 							"/>
						</defs>
						<clipPath id="SVGID_2_">
							<use xlink:href="#SVGID_5_"  style="overflow:visible;"/>
						</clipPath>
						<g class="st4">
							<rect y="-21.2" class="st5" width="62.8" height="62.8"/>
							<rect y="-21.2" class="st1" width="62.8" height="62.8"/>
						</g>
						<g class="st4">
							<rect y="41.6" class="st5" width="62.8" height="62.8"/>
							<rect y="41.6" class="st1" width="62.8" height="62.8"/>
						</g>
					</g>
					<path d="M58.7,62.9H23.5V15.7h22.2l13.1,13.1V62.9z M24.5,61.9h33.3V29.2L45.3,16.7H24.5V61.9z"/>
				</g>
				<g>
					<rect x="51.3" y="13.6" transform="matrix(0.7071 -0.7071 0.7071 0.7071 -0.7974 43.2825)" width="1" height="18.1"/>
				</g>
			</g>
			<g>
				<path d="M58.2,29.5l-12.8,0L45,29V16.2l0.9-0.4l12.8,12.8L58.2,29.5z M46,28.5l11.1,0L46,17.4V28.5z"/>
			</g>
			<g>
				<g>
					<g>
						<circle class="st10" cx="40.4" cy="36.2" r="5.9"/>
					</g>
					<g>
						<path d="M40.4,30.8c3,0,5.4,2.4,5.4,5.4c0,3-2.4,5.4-5.4,5.4s-5.4-2.4-5.4-5.4C34.9,33.2,37.4,30.8,40.4,30.8 M40.4,29.8
							c-3.6,0-6.4,2.9-6.4,6.4c0,3.6,2.9,6.4,6.4,6.4s6.4-2.9,6.4-6.4C46.8,32.7,43.9,29.8,40.4,29.8L40.4,29.8z"/>
					</g>
				</g>
				<g>
					<g>
						<g>
							<path class="st3" d="M44.9,33.2l-0.2,0.1l-0.9,0.1l-0.2,0.4l-0.2-0.1L42.7,33l-0.1-0.3l-0.1-0.3L42.1,32l-0.5-0.1l0,0.2
								L41,32.4L40.9,33l-0.4,0.1l0,0.4l0.6,0.1l0.1-0.6l0.5,0.1l0.2,0.1h0.4l0.2,0.5l0.6,0.7l0,0.3l-0.5-0.1L41.6,35L41,35.8
								l-0.1,0.3h-0.2l-0.4-0.2l-0.4,0.2l0.1,0.4l0.5,0.2l0.3,0.1l0.3,0.3l0.4-0.1l0.5,0.1l0.6,0.2l0.3,0l0.5,0.6l0.9,0.6l-0.6,1.2
								l-0.6,0.3l-0.2,0.7l-0.9,0.6l-0.1,0.4c2.4-0.6,4.2-2.7,4.2-5.3C45.8,35.1,45.5,34.1,44.9,33.2z"/>
						</g>
						<g>
							<path class="st3" d="M41,39.1l-0.4-0.7l0.4-0.8l-0.4-0.1l-0.4-0.4l-0.9-0.2L39,36.2l-0.9-0.7v-0.9l-0.6-0.9l-0.9,0.2H36
								l-0.3-0.2l0-0.2c-0.5,0.8-0.7,1.7-0.7,2.7c0,3,2.4,5.4,5.4,5.4c0.2,0,0.5,0,0.7,0L41,41c0,0,0.2-1,0.2-1
								C41.2,39.9,41,39.1,41,39.1z"/>
						</g>
						<g>
							<path class="st3" d="M36.9,32.5l1-0.1l0.4-0.2l0.5,0.1l0.8,0l0.3-0.4l0.4,0.1l1-0.1l0.3-0.3l0.4-0.3l0.5,0.1l0.2,0
								c-0.7-0.3-1.5-0.5-2.3-0.5c-1.7,0-3.2,0.8-4.2,2h0L36.9,32.5z"/>
						</g>
					</g>
				</g>
			</g>
			<g>
				<path class="st3" d="M53.4,45.4H27.8c-0.3,0-0.5-0.2-0.5-0.5s0.2-0.5,0.5-0.5h25.6c0.3,0,0.5,0.2,0.5,0.5S53.7,45.4,53.4,45.4z"
					/>
			</g>
			<g>
				<path class="st3" d="M53.4,48.7H27.8c-0.3,0-0.5-0.2-0.5-0.5s0.2-0.5,0.5-0.5h25.6c0.3,0,0.5,0.2,0.5,0.5S53.7,48.7,53.4,48.7z"
					/>
			</g>
			<g>
				<path class="st3" d="M53.4,52H27.8c-0.3,0-0.5-0.2-0.5-0.5s0.2-0.5,0.5-0.5h25.6c0.3,0,0.5,0.2,0.5,0.5S53.7,52,53.4,52z"/>
			</g>
			<g>
				<path class="st3" d="M53.4,55.3H27.8c-0.3,0-0.5-0.2-0.5-0.5s0.2-0.5,0.5-0.5h25.6c0.3,0,0.5,0.2,0.5,0.5S53.7,55.3,53.4,55.3z"
					/>
			</g>
		</g>
		<g>
			<path class="st3" d="M53.4,58.6H27.8c-0.3,0-0.5-0.2-0.5-0.5s0.2-0.5,0.5-0.5h25.6c0.3,0,0.5,0.2,0.5,0.5S53.7,58.6,53.4,58.6z"
				/>
		</g>
	</g>
	<g>
		<g>
			<g>
				<g>
					<g>
						<defs>
							<polygon id="SVGID_7_" points="14.9,8.9 14.9,55.1 49.1,55.1 49.1,21.7 36.4,8.9 							"/>
						</defs>
						<clipPath id="SVGID_4_">
							<use xlink:href="#SVGID_7_"  style="overflow:visible;"/>
						</clipPath>
						<g class="st6">
							<rect y="-21.2" class="st5" width="62.8" height="62.8"/>
							<rect y="-21.2" class="st1" width="62.8" height="62.8"/>
						</g>
						<g class="st6">
							<rect y="41.6" class="st5" width="62.8" height="62.8"/>
							<rect y="41.6" class="st1" width="62.8" height="62.8"/>
						</g>
					</g>
					<path d="M49.6,55.6H14.4V8.4h22.2l13.1,13.1V55.6z M15.4,54.6h33.3V21.9L36.2,9.4H15.4V54.6z"/>
				</g>
				<g>
					<rect x="42.3" y="6.3" transform="matrix(0.7071 -0.7071 0.7071 0.7071 1.6986 34.714)" width="1" height="18.1"/>
				</g>
			</g>
			<g>
				<path d="M49.1,22.2l-12.8,0l-0.5-0.5V8.9l0.9-0.4l12.8,12.8L49.1,22.2z M36.9,21.2l11.1,0L36.9,10.1V21.2z"/>
			</g>
			<g>
				<g>
					<g>
						<circle class="st10" cx="31.3" cy="28.9" r="5.9"/>
					</g>
					<g>
						<path d="M31.3,23.5c3,0,5.4,2.4,5.4,5.4s-2.4,5.4-5.4,5.4s-5.4-2.4-5.4-5.4S28.3,23.5,31.3,23.5 M31.3,22.5
							c-3.6,0-6.4,2.9-6.4,6.4c0,3.6,2.9,6.4,6.4,6.4s6.4-2.9,6.4-6.4C37.7,25.4,34.8,22.5,31.3,22.5L31.3,22.5z"/>
					</g>
				</g>
				<g>
					<g>
						<g>
							<path class="st3" d="M35.8,25.9L35.6,26L34.8,26l-0.2,0.4l-0.2-0.1l-0.7-0.6l-0.1-0.3l-0.1-0.3L33,24.7l-0.5-0.1l0,0.2
								l-0.5,0.3l-0.1,0.6l-0.4,0.1l0,0.4l0.6,0.1l0.1-0.6l0.5,0.1l0.2,0.1h0.4l0.2,0.5l0.6,0.7l0,0.3l-0.5-0.1l-0.9,0.5l-0.6,0.8
								l-0.1,0.3h-0.2l-0.4-0.2l-0.4,0.2l0.1,0.4l0.5,0.2l0.3,0.1l0.3,0.3l0.4-0.1l0.5,0.1l0.6,0.2l0.3,0l0.5,0.6l0.9,0.6l-0.6,1.2
								l-0.6,0.3l-0.2,0.7l-0.9,0.6l-0.1,0.4c2.4-0.6,4.2-2.7,4.2-5.3C36.7,27.8,36.4,26.8,35.8,25.9z"/>
						</g>
						<g>
							<path class="st3" d="M31.9,31.8L31.5,31l0.4-0.8l-0.4-0.1l-0.4-0.4l-0.9-0.2l-0.3-0.6L29,28.2v-0.9l-0.6-0.9l-0.9,0.2h-0.6
								l-0.3-0.2l0-0.2c-0.5,0.8-0.7,1.7-0.7,2.7c0,3,2.4,5.4,5.4,5.4c0.2,0,0.5,0,0.7,0l-0.1-0.7c0,0,0.2-1,0.2-1
								C32.1,32.6,31.9,31.8,31.9,31.8z"/>
						</g>
						<g>
							<path class="st3" d="M27.8,25.2l1-0.1l0.4-0.2l0.5,0.1l0.8,0l0.3-0.4l0.4,0.1l1-0.1l0.3-0.3l0.4-0.3l0.5,0.1l0.2,0
								c-0.7-0.3-1.5-0.5-2.3-0.5c-1.7,0-3.2,0.8-4.2,2h0L27.8,25.2z"/>
						</g>
					</g>
				</g>
			</g>
			<g>
				<path class="st3" d="M44.3,38.1H18.7c-0.3,0-0.5-0.2-0.5-0.5s0.2-0.5,0.5-0.5h25.6c0.3,0,0.5,0.2,0.5,0.5S44.6,38.1,44.3,38.1z"
					/>
			</g>
			<g>
				<path class="st3" d="M44.3,41.4H18.7c-0.3,0-0.5-0.2-0.5-0.5s0.2-0.5,0.5-0.5h25.6c0.3,0,0.5,0.2,0.5,0.5S44.6,41.4,44.3,41.4z"
					/>
			</g>
			<g>
				<path class="st3" d="M44.3,44.7H18.7c-0.3,0-0.5-0.2-0.5-0.5s0.2-0.5,0.5-0.5h25.6c0.3,0,0.5,0.2,0.5,0.5S44.6,44.7,44.3,44.7z"
					/>
			</g>
			<g>
				<path class="st3" d="M44.3,48H18.7c-0.3,0-0.5-0.2-0.5-0.5s0.2-0.5,0.5-0.5h25.6c0.3,0,0.5,0.2,0.5,0.5S44.6,48,44.3,48z"/>
			</g>
		</g>
		<g>
			<path class="st3" d="M44.3,51.3H18.7c-0.3,0-0.5-0.2-0.5-0.5s0.2-0.5,0.5-0.5h25.6c0.3,0,0.5,0.2,0.5,0.5S44.6,51.3,44.3,51.3z"
				/>
		</g>
	</g>
	<g>
		<g>
			<g>
				<g>
					<g>
						<defs>
							<polygon id="SVGID_9_" points="5.8,1.6 5.8,47.8 40,47.8 40,14.4 27.3,1.6 							"/>
						</defs>
						<clipPath id="SVGID_6_">
							<use xlink:href="#SVGID_9_"  style="overflow:visible;"/>
						</clipPath>
						<g class="st12">
							<rect y="-21.2" class="st5" width="62.8" height="62.8"/>
							<rect y="-21.2" class="st1" width="62.8" height="62.8"/>
						</g>
						<g class="st12">
							<rect y="41.6" class="st5" width="62.8" height="62.8"/>
							<rect y="41.6" class="st1" width="62.8" height="62.8"/>
						</g>
					</g>
					<path d="M40.5,48.3H5.3V1.1h22.2l13.1,13.1V48.3z M6.3,47.3h33.3V14.6L27.1,2.1H6.3V47.3z"/>
				</g>
				<g>
					<rect x="33.2" y="-1" transform="matrix(0.7071 -0.7071 0.7071 0.7071 4.1939 26.144)" width="1" height="18.1"/>
				</g>
			</g>
			<g>
				<path d="M40,14.9l-12.8,0l-0.5-0.5V1.6l0.9-0.4L40.4,14L40,14.9z M27.8,13.9l11.1,0L27.8,2.8V13.9z"/>
			</g>
			<g>
				<g>
					<g>
						<circle class="st10" cx="22.2" cy="21.6" r="5.9"/>
					</g>
					<g>
						<path d="M22.2,16.2c3,0,5.4,2.4,5.4,5.4s-2.4,5.4-5.4,5.4s-5.4-2.4-5.4-5.4S19.2,16.2,22.2,16.2 M22.2,15.2
							c-3.6,0-6.4,2.9-6.4,6.4s2.9,6.4,6.4,6.4s6.4-2.9,6.4-6.4S25.7,15.2,22.2,15.2L22.2,15.2z"/>
					</g>
				</g>
				<g>
					<g>
						<g>
							<path class="st3" d="M26.7,18.6l-0.2,0.1l-0.9,0.1l-0.2,0.4l-0.2-0.1l-0.7-0.6l-0.1-0.3l-0.1-0.3l-0.4-0.4l-0.5-0.1l0,0.2
								l-0.5,0.3l-0.1,0.6l-0.4,0.1l0,0.4l0.6,0.1l0.1-0.6l0.5,0.1l0.2,0.1H24l0.2,0.5l0.6,0.7l0,0.3L24.3,20l-0.9,0.5l-0.6,0.8
								l-0.1,0.3h-0.2L22,21.3l-0.4,0.2l0.1,0.4l0.5,0.2l0.3,0.1l0.3,0.3l0.4-0.1l0.5,0.1l0.6,0.2l0.3,0l0.5,0.6l0.9,0.6L25.4,25
								l-0.6,0.3l-0.2,0.7l-0.9,0.6l-0.1,0.4c2.4-0.6,4.2-2.7,4.2-5.3C27.6,20.5,27.3,19.5,26.7,18.6z"/>
						</g>
						<g>
							<path class="st3" d="M22.8,24.5l-0.4-0.7l0.4-0.8l-0.4-0.1L22,22.5l-0.9-0.2l-0.3-0.6l-0.9-0.7v-0.9l-0.6-0.9l-0.9,0.2h-0.6
								l-0.3-0.2l0-0.2c-0.5,0.8-0.7,1.7-0.7,2.7c0,3,2.4,5.4,5.4,5.4c0.2,0,0.5,0,0.7,0l-0.1-0.7c0,0,0.2-1,0.2-1
								C23,25.3,22.8,24.5,22.8,24.5z"/>
						</g>
						<g>
							<path class="st3" d="M18.8,17.9l1-0.1l0.4-0.2l0.5,0.1l0.8,0l0.3-0.4l0.4,0.1l1-0.1l0.3-0.3l0.4-0.3l0.5,0.1l0.2,0
								c-0.7-0.3-1.5-0.5-2.3-0.5c-1.7,0-3.2,0.8-4.2,2h0L18.8,17.9z"/>
						</g>
					</g>
				</g>
			</g>
			<g>
				<path class="st3" d="M35.2,30.8H9.6c-0.3,0-0.5-0.2-0.5-0.5s0.2-0.5,0.5-0.5h25.6c0.3,0,0.5,0.2,0.5,0.5S35.5,30.8,35.2,30.8z"
					/>
			</g>
			<g>
				<path class="st3" d="M35.2,34.1H9.6c-0.3,0-0.5-0.2-0.5-0.5s0.2-0.5,0.5-0.5h25.6c0.3,0,0.5,0.2,0.5,0.5S35.5,34.1,35.2,34.1z"
					/>
			</g>
			<g>
				<path class="st3" d="M35.2,37.4H9.6c-0.3,0-0.5-0.2-0.5-0.5s0.2-0.5,0.5-0.5h25.6c0.3,0,0.5,0.2,0.5,0.5S35.5,37.4,35.2,37.4z"
					/>
			</g>
			<g>
				<path class="st3" d="M35.2,40.7H9.6c-0.3,0-0.5-0.2-0.5-0.5s0.2-0.5,0.5-0.5h25.6c0.3,0,0.5,0.2,0.5,0.5S35.5,40.7,35.2,40.7z"
					/>
			</g>
		</g>
		<g>
			<path class="st3" d="M35.2,44H9.6c-0.3,0-0.5-0.2-0.5-0.5S9.3,43,9.6,43h25.6c0.3,0,0.5,0.2,0.5,0.5S35.5,44,35.2,44z"/>
		</g>
	</g>
</g>
<g>
	<g>
		<g>
			<g>
				<g>
					<defs>
						<path id="SVGID_13_" d="M57.7,105.9c-1.3-1.8-2.8-3.4-4.5-4.8l-15.7,19.5L57.7,105.9z"/>
					</defs>
					<clipPath id="SVGID_8_">
						<use xlink:href="#SVGID_13_"  style="overflow:visible;"/>
					</clipPath>
					<g class="st13">
						<rect y="41.6" class="st5" width="62.8" height="62.8"/>
						<rect y="41.6" class="st9" width="62.8" height="62.8"/>
					</g>
				</g>
			</g>
			<g>
				<g>
					<defs>
						<path id="SVGID_15_" d="M53.1,101.1c-1.8-1.4-3.7-2.5-5.7-3.4l-10,22.9L53.1,101.1z"/>
					</defs>
					<clipPath id="SVGID_10_">
						<use xlink:href="#SVGID_15_"  style="overflow:visible;"/>
					</clipPath>
					<g class="st14">
						<rect y="41.6" class="st5" width="62.8" height="62.8"/>
						<rect y="41.6" class="st10" width="62.8" height="62.8"/>
					</g>
				</g>
			</g>
			<g>
				<g>
					<defs>
						<path id="SVGID_21_" d="M47.4,97.7c-2-0.9-4.2-1.5-6.3-1.8l-3.7,24.7L47.4,97.7z"/>
					</defs>
					<clipPath id="SVGID_12_">
						<use xlink:href="#SVGID_21_"  style="overflow:visible;"/>
					</clipPath>
					<g class="st16">
						<rect y="41.6" class="st5" width="62.8" height="62.8"/>
						<rect y="41.6" class="st3" width="62.8" height="62.8"/>
					</g>
				</g>
			</g>
			<g>
				<g>
					<defs>
						<path id="SVGID_23_" d="M41.1,95.9c-8.5-1.3-17.4,1.9-23.2,9.1s-6.9,16.6-3.8,24.6l23.3-8.9L41.1,95.9z"/>
					</defs>
					<clipPath id="SVGID_14_">
						<use xlink:href="#SVGID_23_"  style="overflow:visible;"/>
					</clipPath>
					<g class="st17">
						<rect y="41.6" class="st5" width="62.8" height="62.8"/>
						<rect y="41.6" class="st0" width="62.8" height="62.8"/>
					</g>
				</g>
			</g>
		</g>
	</g>
	<g>
		<g>
			<g>
				<defs>
					<path id="SVGID_37_" d="M5.7,118.8c-2.4,0-4.3-1.3-4.6-3c-0.5-2.2,1.3-4.6,4.1-5.3c0.5-0.1,1.1-0.2,1.6-0.2
						c0.4,0,0.8,0,1.2,0.1V88.9l19.1-3.1v25.1c0,2.3-1.6,4.1-4.3,4.7c-0.5,0.1-1.1,0.2-1.6,0.2c-2.3,0-4.1-1.2-4.6-3
						c-0.6-2.3,1.3-4.7,4.2-5.4c0.5-0.1,1.1-0.2,1.6-0.2c0.4,0,0.9,0,1.3,0.1V93.9l-12.3,2.2l-0.1,18.5h0c-0.3,1.8-1.9,3.4-4.2,4
						C6.8,118.7,6.3,118.8,5.7,118.8z"/>
				</defs>
				<clipPath id="SVGID_16_">
					<use xlink:href="#SVGID_37_"  style="overflow:visible;"/>
				</clipPath>
				<g class="st18">
					<rect y="41.6" class="st5" width="62.8" height="62.8"/>
					<rect y="41.6" class="st9" width="62.8" height="62.8"/>
				</g>
			</g>
		</g>
	</g>
</g>
</svg>
