<?xml version="1.0" encoding="utf-8"?>
<!-- Generator: Adobe Illustrator 22.0.0, SVG Export Plug-In . SVG Version: 6.00 Build 0)  -->
<svg version="1.1" id="finger" xmlns="http://www.w3.org/2000/svg" xmlns:xlink="http://www.w3.org/1999/xlink" x="0px" y="0px"
	 viewBox="0 0 24 24" style="enable-background:new 0 0 24 24;" xml:space="preserve" height="24" width="24">
<style type="text/css">
	.st0{fill:#FFFFFF;stroke:#000000;stroke-linecap:square;stroke-linejoin:round;}
	.st1{fill:none;stroke:#000000;stroke-linecap:round;stroke-miterlimit:10;}
	.st2{fill:#FFFFFF;stroke:#000000;stroke-linejoin:round;}
</style>
<title>finger</title>
<path class="st0" d="M11.6,11V7.1c0-0.5-0.4-0.8-0.8-0.8c0,0,0,0,0,0h-0.3c-0.5,0-0.8,0.4-0.8,0.8v6.1l-1-1c-0.3-0.3-0.8-0.3-1.1,0
	l-0.5,0.5c-0.3,0.3-0.3,0.8,0,1.1c0,0,0,0,0,0l2.7,2.6l0,0c1.1,2.7,3.7,4.4,6.5,4.4l0.7-1.7c0.5-1.2,0.8-2.6,0.8-3.9v-3.3
	c0-0.4-0.4-0.8-0.8-0.8c0,0,0,0,0,0L11.6,11z"/>
<line class="st1" x1="11.6" y1="13.5" x2="11.6" y2="11"/>
<line class="st1" x1="13.6" y1="13.6" x2="13.6" y2="11"/>
<line class="st1" x1="15.6" y1="13.6" x2="15.6" y2="11"/>
<rect x="10" y="19.1" class="st2" width="7.6" height="2.7"/>
</svg>
